<?xml version="1.0" encoding="UTF-8"?> <svg xmlns="http://www.w3.org/2000/svg" xmlns:xlink="http://www.w3.org/1999/xlink" width="216" height="56"><path d="M148.8 3.6h11.7l-22.8 22.6L162 52.4h-12.2l-23.5-26.3zM117.5 3.6h8.7v48.8h-8.7z"></path><defs><path id="a" d="M1.9 2.9h212.2v50.2H1.9z"></path></defs><clipPath id="b"><use xlink:href="#a" overflow="visible"></use></clipPath><path d="M106.7 28c0 13.9-11.2 25.1-25.1 25.1-13.9 0-25.1-11.2-25.1-25.1 0-13.9 11.2-25.1 25.1-25.1 13.8 0 25.1 11.2 25.1 25.1M214.1 28c0 13.9-11.2 25.1-25.1 25.1-13.9 0-25.1-11.2-25.1-25.1 0-13.9 11.2-25.1 25.1-25.1 13.8 0 25.1 11.2 25.1 25.1M1.9 3.6h11.5l22.7 36.5h.1V3.6h8.7v48.8h-11L10.7 14.7h-.1v37.7H1.9z" clip-path="url(#b)"></path></svg> 